<svg width="514" height="486" viewBox="0 0 514 486" fill="none" xmlns="http://www.w3.org/2000/svg">
<g clip-path="url(#clip0_10930_1020)">
<path opacity="0.992157" d="M176 69H199.75L200.25 70H207.75L208.25 71H212.75L213.25 72H216.75L217.25 73H220.75C220.483 74.1333 221.817 74.4667 224.75 74L225 75H228V76H231V77C232.733 76.4433 233.4 76.7767 233 78H236V79H238V80C239.733 79.4433 240.4 79.7767 240 81H243V82H244.75C244.487 83.0833 245.237 83.4167 247 83L248 85H250V86H251.75C251.487 87.0833 252.237 87.4167 254 87L255 89H257V90H258L259 92H261L262 94H264V95H265V96H266V97H267L268 99H270V100H271V101H272V102H273V103H274V104H275V105H276V106H277V107H278V108H279V109H280V110H281V111L283 112V114H284V115H285V116L287 117V119H288V120L290 121V123L292 124V126L294 127V128.75C295.083 128.487 295.417 129.237 295 131L297 132V134H298V136H299V138H300V140H301V142H302C301.443 143.733 301.777 144.4 303 144V147H304V150H305V153H306V156H307V159L308 159.25V163.75L309 164V168.75L310 169.25V175.75L311 176.25V214L310 214.25V221.75L309 222.25V228.75L308 229.25V234.75L307 235.25V239.75L306 240.25V244.75L305 245V248.75L304 249.25V253.75L303 254V257L302 257.25V260.75L301 261.25V264.75C299.867 264.483 299.533 265.817 300 268.75L299 269V272L298 272.25V275.75L297 276V279H296V282H295V285H294V288H293V291H292V294H291V297H290V300H289C289.417 301.763 289.083 302.513 288 302.25V305H287C287.557 306.733 287.223 307.4 286 307V309.75L285 310V313H284V316H283V318H282C282.557 319.733 282.223 320.4 281 320V322.75L280 323V326H279V328H278C278.557 329.733 278.223 330.4 277 330V333H276C276.417 334.763 276.083 335.513 275 335.25V338H274V340H273C273.557 341.733 273.223 342.4 272 342V345H271V346L269 347V343.25L270 343V340H271V337L272 336.75V333.25L273 333V330L274 329.75V326.25L275 326V323H276V320H277V317H278V312.25L279 312V309L280 308.75V305.25L281 305V302L282 301.75V297.25L283 297V294L284 293.75V289.25L285 289V285.25L286 284.75V279.25L287 278.75C286.533 275.817 286.867 274.483 288 274.75V269.25L289 269V264.25L290 263.75V258.25L291 257.75V252.25L292 251.75V243.25L293 242.75V233.25L294 232.75V197L293 196.75V189.25L292 188.75V181.25L291 181V177.25L290 176.75V172.25L289 172V169L288 168.75V165.25L287 165V162H286V159H285C285.417 157.237 285.083 156.487 284 156.75V154H283C283.557 152.267 283.223 151.6 282 152V149H281V147H280V145H279V143H278V141H277V139.25C275.917 139.513 275.583 138.763 276 137L274 136V134.25C272.917 134.513 272.583 133.763 273 132L271 131V129.25C269.917 129.513 269.583 128.763 270 127H269V126L267 125V123H266V122L264 121V119H263V118H262V117L260 116V114H259V113H258V112H257V111H256V110H255V109H254V108H253V107H252V106H251V105H250V104H249V103H248L247 101H246V100H244V99H243V98H242V97H241L240 95H238V94H237L236 92H234L233 90H231L230 88H228L227 86H225V85H223V84H221V83H219V82H217V81C215.267 81.5567 214.6 81.2233 215 80H212V79C210.267 79.5567 209.6 79.2233 210 78H207V77H204V76H201V75H198L197.75 74H192.25L192 73H187.25L186.75 72H164.25L164 71H168.75L169.25 70H175.75L176 69Z" fill="#BA40F6" stroke="#BA40F6"/>
<path opacity="0.992157" d="M144 77.0003C145.05 76.7503 145.467 77.0836 145.25 78.0003H149V79.0003H150.75C150.487 80.0836 151.237 80.4169 153 80.0003L154 82.0003H156V83.0003H157V84.0003H158V85.0003H159V86.0003H160L161 88.0003H163C162.667 89.0003 163 89.3336 164 89.0003V91.0003H165V92.0003H166V93.0003H167V94.0003H168V95.0003L170 96.0003V98.0003H171V99.0003L173 100V102H174V103L176 104V106L178 107V109L180 110V112L182 113V115L184 116V118L186 119V120.75C187.083 120.487 187.417 121.237 187 123L189 124V125.75C190.083 125.487 190.417 126.237 190 128L192 129V132L194 133V135H195V136.75C196.083 136.487 196.417 137.237 196 139L198 140V143L200 144V147L202 148V151H203V153H204V155H205V157H206V159H207V161H208V163H209C208.443 164.734 208.777 165.4 210 165V168H211V170H212V172H213C212.443 173.734 212.777 174.4 214 174V177H215C214.443 178.734 214.777 179.4 216 179V182H217C216.443 183.734 216.777 184.4 218 184V187H219C218.583 188.764 218.917 189.514 220 189.25V192H221C220.443 193.734 220.777 194.4 222 194V196.75L223 197V200H224V203H225C224.443 204.734 224.777 205.4 226 205V208H227V211H228V214H229V217H230V220H231V223L232 223.25V227.75C233.083 227.487 233.417 228.237 233 230H234V234.75L235 235C234.583 236.764 234.917 237.514 236 237.25V242.75L237 243C236.583 244.764 236.917 245.514 238 245.25V250.75L239 251C238.583 252.764 238.917 253.514 240 253.25V259.75L241 260C240.583 261.764 240.917 262.514 242 262.25V266.75L243 267V270.75L244 271.25V277.75L245 278V281L246 281.25V287H247C246.583 288.764 246.917 289.514 248 289.25V297.75L249 298C248.583 299.764 248.917 300.514 250 300.25V307.75L251 308C250.583 309.764 250.917 310.514 252 310.25V319.75L253 320V323L254 323.25V330.75L255 331V334.75L256 335.25V344.75L257 345V348L258 348.25V352H256V353C254.237 352.584 253.487 352.917 253.75 354H249C249.333 353 249 352.667 248 353V351L246 350V348L244 347V345H243V344H242V343L240 342V340L238 339V337L236 336V334L234 333V331L232 330V328H230V325H229V324H228V323L226 322V320H224V317L222 316V314L220 313V311L218 310V308L216 307V305L214 304V302L212 301V299L210 298V296L208 295V293L206 292V290H205V288.25C203.917 288.514 203.583 287.764 204 286L202 285V283L200 282V280L198 279V276L196 275V273L194 272V269L192 268V266.25C190.917 266.514 190.583 265.764 191 264H190V263L188 262V259L186 258V256L184 255V252L182 251V248L180 247V245L178 244V241L176 240V237L174 236V233L172 232V229L170 228V224.25L168 224V220L166 219V216L164 215V212L162 211V207H161V205H160V203H159C159.557 201.267 159.223 200.6 158 201V198L156 197V192L154 191V187.25C153.083 187.467 152.75 187.05 153 186H152V182.25C150.917 182.514 150.583 181.764 151 180H150V176H149C149.557 174.267 149.223 173.6 148 174V170H147C147.25 168.95 146.917 168.534 146 168.75V164.25C144.917 164.514 144.583 163.764 145 162H144V157.25L143 157C143.417 155.237 143.083 154.487 142 154.75V149H141C141.25 147.95 140.917 147.534 140 147.75V143.25L139 143V139.25L138 138.75V132.25L136 130.75V121.25L135 121C135.417 119.237 135.083 118.487 134 118.75V87.0003L136 86.0003V82.0003C137.733 82.5569 138.4 82.2236 138 81.0003C137 81.3336 136.667 81.0003 137 80.0003C138.05 80.2503 138.467 79.9169 138.25 79.0003H141V78.0003H144V77.0003Z" fill="#BA40F6" stroke="#BA40F6"/>
<path opacity="0.992157" d="M118 90.0004C119.733 89.4437 120.4 89.7771 120 91.0004H119V92.0004H118L117 94.0004H115V95.0004H114V96.0004H113V97.0004H112V98.0004L110 99.0004V101H109V102H108V103H107V104H106V105L104 106V108L102 109V111L100 112V114L98 115V117L96 118V120H95V122H94V124H93C93.5567 125.734 93.2233 126.4 92 126V129H91V131H90C90.5567 132.734 90.2233 133.4 89 133V136H88V139H87V142L86 142.25V145.75L85 146.25V149.75L84 150.25V155.75L83 156.25V162.75L82 163.25V192L83 192.25V197.75L84 198.25V204.75L85 205V208.75L86 209.25V213.75L87 214V217L88 217.25V220.75L89 221V224H90V227H91C90.5833 228.764 90.9167 229.514 92 229.25V232H93C92.4433 233.734 92.7767 234.4 94 234V237H95V238.75C96.0833 238.487 96.4167 239.237 96 241L98 242V244H99V245.75C100.083 245.487 100.417 246.237 100 248L102 249V251L104 252V253.75C105.083 253.487 105.417 254.237 105 256H106V257L108 258V260L110 261V263H111V264H112V265L114 266V268H115V269H116V270H117V271L119 272V274H120V275H121V276H122V277H123V278H124V279H125V280H126V281H127V282H128V283H129V284H130V285H131V286H132V287H133V288H134V289H135V290H136V291H137L138 293H139V294H140V295H141V296H143V297H144V298H145L146 300H148V301H149V302H150V303H151L152 305H154V306H155L156 308H158V309H159L160 311H162V312H163L164 314H166L167 316H169V317H170L171 319H173L174 321H176L177 323H179L180 325H182L183 327H185L186 329H187.75C187.487 330.084 188.237 330.417 190 330L191 332H193L194 334H196L197 336H198.75C198.487 337.084 199.237 337.417 201 337L202 339H203.75C203.487 340.084 204.237 340.417 206 340L207 342H209V343H210.75C210.487 344.084 211.237 344.417 213 344L214 346H216V347H218V348H220V349H221.75C221.487 350.084 222.237 350.417 224 350L225 352H228L229 354H231V355H233V356H235V357H236.75C236.487 358.084 237.237 358.417 239 358V360H235V359H233V358C231.267 358.557 230.6 358.224 231 357H228V356C226.237 356.417 225.487 356.084 225.75 355H223V354H221V353C219.267 353.557 218.6 353.224 219 352H216V351H214V350C212.267 350.557 211.6 350.224 212 349H209V348H207V347H205V346H203V345C201.267 345.557 200.6 345.224 201 344H198V343H196V342H194V341H192V340H190V339H188V338H186V337H184V336H182V335H180V334H178V333H176V332H174V331H172.25C172.513 329.917 171.763 329.584 170 330L169 328H167V327H165.25C165.513 325.917 164.763 325.584 163 326L162 324H160V323H158V322H156.25C156.513 320.917 155.763 320.584 154 321L153 319H151.25C151.513 317.917 150.763 317.584 149 318L148 316H146L145 314H143L142 312H140L139 310H137L136 308H134L133 306H131L130 304H128V303H127L126 301H124V300H123L122 298H120V297H119V296H118V295H117L116 293H114V292H113V291H112V290H111V289H110V288H109L108 286H106V285H105V284H104V283H103V282H102V281H101V280H100V279H99V278H98V277H97V276L95 275V273H94V272H93V271L91 270V268H90V267H89V266L87 265V263L85 262V260H84V259L82 258V256C80.7767 256.4 80.4433 255.734 81 254L79 253V251H78V249H77V247H76V245H75C75.5567 243.267 75.2233 242.6 74 243V240H73C73.5567 238.267 73.2233 237.6 72 238V235H71V232H70V229H69V226L68 225.75C68.4667 222.817 68.1333 221.484 67 221.75V217.25L66 216.75V211.25L65 210.75V203.25L64 202.75V184L65 183.75V175.25L66 174.75V169.25L67 168.75V164.25C68.1333 164.517 68.4667 163.184 68 160.25L69 160V157H70V154H71V151H72V148H73C72.4433 146.267 72.7767 145.6 74 146V143H75V141H76V139H77V137H78V135.25C79.0833 135.514 79.4167 134.764 79 133L81 132V130.25C82.0833 130.514 82.4167 129.764 82 128L84 127V125.25C85.0833 125.514 85.4167 124.764 85 123H86V122L88 121V119H89V118L91 117V115H92V114H93V113H94V112H95V111H96V110H97V109L99 108V106H100L101 104H103V103H104V102H105V101H106V100H107V99.0004H108V98.0004H109L110 96.0004H112V95.0004H113L114 93.0004H116V92.0004H117L118 90.0004Z" fill="#BA40F6" stroke="#BA40F6"/>
<path opacity="0.996078" d="M162 72H186.75L187 73H191.75L192.25 74H197.75L198 75H201V76H204V77H207V78H210V79C211.733 78.4433 212.4 78.7767 212 80H215V81H217V82H219V83H221V84H223V85H224.75C224.487 86.0833 225.237 86.4167 227 86L228 88H230L231 90H233L234 92H236V93H237L238 95H240V96H241V97H242V98H243L244 100H246V101H247V102H248V103H249V104H250V105H251V106H252V107H253V108H254V109H255V110H256V111L258 112V113H259V114H260V116H261V117H262V118L264 119V121H265V122L267 123V125H268V126L270 127V128.75C271.083 128.487 271.417 129.237 271 131L273 132V133.75C274.083 133.487 274.417 134.237 274 136L276 137V139H277V141H278V143H279V145H280V147H281C280.443 148.733 280.777 149.4 282 149V152H283C282.583 153.763 282.917 154.513 284 154.25V157H285C284.443 158.733 284.777 159.4 286 159V162H287V165L288 165.25V168.75L289 169V172L290 172.25V176.75L291 177V180.75L292 181.25V188.75L293 189.25V196.75L294 197.25V233L293 233.25V242.75L292 243.25V251.75L291 252.25V257.75L290 258.25V263.75L289 264V268.75L288 269.25V274.75L287 275V278.75L286 279.25V284.75L285 285.25C285.467 288.183 285.133 289.517 284 289.25V293.75L283 294V297L282 297.25V301.75L281 302V305L280 305.25V308.75L279 309V312L278 312.25V316.75L277 317V320H276V323H275V326L274 326.25V329.75L273 330V333L272 333.25V336.75L271 337V340H270V343L269 343.25V347C270 347.333 270.333 347 270 346H272C271.667 347 272 347.333 273 347V349H274V351H275V353H276V355C275 354.667 274.667 355 275 356H273V357H271V358H268V359C266.267 358.443 265.6 358.777 266 360H263V361C261.267 360.443 260.6 360.777 261 362H258V363C256.267 362.443 255.6 362.777 256 364H253V365C251.267 364.443 250.6 364.777 251 366H248V367H246V368C244.237 367.583 243.487 367.917 243.75 369H241C241.333 370 241 370.333 240 370V369L238 368V365H237V363.25C235.917 363.513 235.583 362.763 236 361C237 361.333 237.333 361 237 360H239V358H237V357H235V356H233V355H231.25C231.513 353.917 230.763 353.583 229 354L228 352H225L224 350H222V349H220V348H218V347H216.25C216.513 345.917 215.763 345.583 214 346L213 344H211V343H209.25C209.513 341.917 208.763 341.583 207 342L206 340H204C204.4 338.777 203.733 338.443 202 339L201 337H199.25C199.513 335.917 198.763 335.583 197 336L196 334H194L193 332H191L190 330H188.25C188.513 328.917 187.763 328.583 186 329L185 327H183L182 325H180L179 323H177L176 321H174L173 319H171V318H170L169 316H167L166 314H164V313H163L162 311H160V310H159L158 308H156V307H155L154 305H152V304H151V303H150V302H149L148 300H146V299H145V298H144L143 296H141V295H140V294H139V293H138V292H137V291H136V290H135V289H134V288H133V287H132V286H131V285H130V284H129V283H128V282H127V281H126V280H125V279H124V278H123V277H122L121 275H120V274H119V272H118V271H117V270H116V269L114 268V266H113V265H112V264L110 263V261L108 260V258H107V257L105 256V254.25C103.917 254.513 103.583 253.763 104 252L102 251V249L100 248V246H99V244H98V242.25C96.9167 242.513 96.5833 241.763 97 240L95 239C95.5567 237.267 95.2233 236.6 94 237V234H93C93.4167 232.237 93.0833 231.487 92 231.75V229H91C91.5567 227.267 91.2233 226.6 90 227V224H89V221L88 220.75V217.25L87 217V214L86 213.75V209.25L85 209V205.25L84 204.75V198.25L83 197.75V192.25L82 191.75V163L83 162.75V156.25L84 155.75V150.25L85 149.75V146.25C86.1333 146.517 86.4667 145.183 86 142.25L87 142V139.25L88 139V136H89V133H90V131H91C90.4433 129.267 90.7767 128.6 92 129V126H93V124H94V122H95V120.25C96.0833 120.513 96.4167 119.763 96 118L98 117V115L100 114V112L102 111V109L104 108V106H105V105H106V104H107V103H108V102H109V101L111 100V98H112V97H113L114 95H116V94H117V93H118V92H119V91H120V90H121L122 88H124C123.6 86.7767 124.267 86.4433 126 87L127 85H129V86H128V87L126 88V90L124 91V93H123V94L121 95V97H120V99H119V101H118V103H117C117.557 104.733 117.223 105.4 116 105V107.75L115 108V111H114C114.417 112.763 114.083 113.513 113 113.25C113.467 116.183 113.133 117.517 112 117.25V121.75L111 122V125.75L110 126.25V133.75L109 134.25V161L110 161.25V169.75L111 170.25V175.75L112 176V179.75L113 180.25V184.75L115 186.25V190.75L116 191.25V195.75C117.083 195.487 117.417 196.237 117 198H118V200H119V204.75L120 205V208H121V210H122C121.443 211.733 121.777 212.4 123 212V215H124C123.583 216.763 123.917 217.513 125 217.25V220L126 220.25V224H127V226H128V228H129C128.443 229.733 128.777 230.4 130 230V233H131V234.75C132.083 234.487 132.417 235.237 132 237L134 238V241L136 242V244L138 245V248L140 249V251L142 252V254L144 255V257L146 258V260H147V261L149 262V264H150V265L152 266V268H153V269L155 270V272H156V273H157V274L159 275V277H160V278H161V279H162V280H163V281L165 282V284H166V285H167V286H168V287H169V288H170V289H171V290H172V291L174 292V294H175V295H176V296H177V297H178V298H179V299H180V300H181V301H182V302H183V303H184V304H185V305H186V306H187V307H188V308H189V309H190V310H191V311H192V312H193V313H194V314H195V315H196V316H197V317H198L199 319H200V320H202V321H203V322H204V323H205V324H206V325H207V326H208L209 328H211V329H212V330H213V331H214V332H215L216 334H218V336C219 335.667 219.333 336 219 337H221V338H222L223 340H225V341H226V342H227L228 344H230V345H231V346H232V347H233L234 349H236V350H237L238 352H240V353H241L242 355C243.763 354.583 244.513 354.917 244.25 356H247C246.667 355 247 354.667 248 355C247.667 356 248 356.333 249 356V355C250.763 355.417 251.513 355.083 251.25 354H254V353H255.75C255.487 351.917 256.237 351.583 258 352L259 350H261V349L263 348V345L264 344.75V337.25L265 336.75V328.25L266 327.75V319.25L267 318.75V305.25L268 304.75V288.25L269 287.75V241L268 240.75V225.25L267 225V220.25L266 219.75V211.25L265 211V207.25L264 206.75V200.25L263 200V197L262 196.75V192.25C260.867 192.517 260.533 191.183 261 188.25L260 188V185H259V182L258 181.75V178H257C257.557 176.267 257.223 175.6 256 176V173H255V170H254V167H253C253.557 165.267 253.223 164.6 252 165V162H251V160H250V158H249V156H248V154H247C247.557 152.267 247.223 151.6 246 152V149L244 148V146H243V144H242V142H241V140.25C239.917 140.513 239.583 139.763 240 138L238 137V135L236 134V132L234 131V129L232 128V126L230 125V123H229V122L227 121V119H226V118H225V117H224V116L222 115V113H221V112H220V111H219V110H218V109L216 108V106H215V105H214V104H213V103H212V102H211L210 100H208V99H207V98H206V97H205V96H204V95H203L202 93H200V92H199V91H198L197 89H195L194 87H192.25C192.513 85.9167 191.763 85.5833 190 86L189 84H187V83H185V82H183V81H181V80C179.267 80.5567 178.6 80.2233 179 79H176V78H173V77H170L169.75 76H164.25L163.75 75H154.25L154 74H157L157.25 73H161.75L162 72Z" fill="#F9F27B" stroke="#F9F27B"/>
<path opacity="0.996078" d="M133 200H136C135.583 201.763 135.917 202.513 137 202.25V207C136 207.333 135.667 207 136 206H134C134.333 205 134 204.667 133 205V203C132 203.333 131.667 203 132 202C133.223 202.4 133.557 201.733 133 200Z" fill="#F9F27B" stroke="#F9F27B"/>
<path opacity="0.996078" d="M277 373H280C279.583 374.763 279.917 375.513 281 375.25V378H282V381.75L283 382.25V385.75L284 386.25V390.75L285 391V394.75L286 395.25V398.75L287 399.25V405H285V406H283V407C281.267 406.443 280.6 406.777 281 408H278V409C276.267 408.443 275.6 408.777 276 410H273V411C271.267 410.443 270.6 410.777 271 412H268.25L268 413H265C265.333 412 265 411.667 264 412V410H263V408H262V406L260 405V403.25C258.917 403.513 258.583 402.763 259 401L257 400V398.25C255.917 398.513 255.583 397.763 256 396L254 395V393H253V391.25C251.917 391.513 251.583 390.763 252 389L250 388V385C251 385.333 251.333 385 251 384H253L254 382H258V381C259.733 381.557 260.4 381.223 260 380H263V379C264.733 379.557 265.4 379.223 265 378H267.75C267.487 376.917 268.237 376.583 270 377V376H273L274 374H277V373Z" fill="#F9F27B" stroke="#F9F27B"/>
<path opacity="0.996078" d="M159 72H162V73H159V72Z" fill="#77E7A6" stroke="#77E7A6"/>
<path opacity="0.996078" d="M155 73.0004C156.733 72.4437 157.4 72.7771 157 74.0004C155.267 74.5571 154.6 74.2237 155 73.0004Z" fill="#77E7A6" stroke="#77E7A6"/>
<path opacity="0.996078" d="M152 73.9998C153.763 73.5831 154.513 73.9164 154.25 74.9998H163.75L164.25 75.9998H169.75L170 76.9998H173V77.9998H176V78.9998H179V79.9998H181V80.9998H183V81.9998H185V82.9998H186.75C186.487 84.0831 187.237 84.4164 189 83.9998L190 85.9998H191.75C191.487 87.0831 192.237 87.4164 194 86.9998L195 88.9998H197V89.9998H198V90.9998H199L200 92.9998H202V93.9998H203V94.9998H204V95.9998H205V96.9998H206V97.9998H207L208 99.9998H210V101H211V102H212V103H213V104H214V105L216 106V108H217V109H218V110H219V111H220V112L222 113V115H223V116H224V117H225V118L227 119V121H228V122L230 123V125L232 126V128L234 129V131L236 132V134L238 135V137L240 138V140H241V142H242V144H243V145.75C244.083 145.486 244.417 146.236 244 148L246 149V152H247V154H248V156H249V158H250V160H251C250.443 161.733 250.777 162.4 252 162V164.75C253.083 164.486 253.417 165.236 253 167H254V169.75L255 170V173H256V176H257C256.583 177.763 256.917 178.513 258 178.25V181.75L259 182V185H260V188L261 188.25V191.75L262 192.25V196.75L263 197V200L264 200.25V206.75L265 207V210.75L266 211.25V219.75L267 220V224.75L268 225.25V240.75L269 241.25V288L268 288.25V304.75L267 305.25V318.75L266 319.25V327.75L265 328.25V336.75L264 337.25V344.75L263 345V348H262L261 350H259C259.333 351 259 351.333 258 351V348H257V345L256 344.75V335.25L255 335V331.25L254 330.75V323.25L253 323V320L252 319.75V310.25L251 310C251.417 308.236 251.083 307.486 250 307.75V300.25L249 300C249.417 298.236 249.083 297.486 248 297.75V289.25L247 289C247.417 287.236 247.083 286.486 246 286.75V281.25L245 281V278L244 277.75V271.25L243 271V267.25L242 266.75V262H241C241.417 260.236 241.083 259.486 240 259.75V253.25L239 253C239.417 251.236 239.083 250.486 238 250.75V245.25L237 245C237.417 243.236 237.083 242.486 236 242.75V237.25L235 237C235.417 235.236 235.083 234.486 234 234.75V230.25L233 230C233.417 228.236 233.083 227.486 232 227.75V223.25L231 223V220H230V217H229V214H228V211H227V208H226V205H225C225.557 203.266 225.223 202.6 224 203V200.25L223 200V197H222V194H221C221.557 192.266 221.223 191.6 220 192V189H219C219.557 187.266 219.223 186.6 218 187V184H217C217.417 182.236 217.083 181.486 216 181.75V179H215C215.557 177.266 215.223 176.6 214 177V174H213V172H212V170H211C211.557 168.266 211.223 167.6 210 168V165H209V163H208V161H207V159H206V157H205V155H204V153H203C203.557 151.266 203.223 150.6 202 151V148L200 147V144L198 143V140L196 139V137H195V135.25C193.917 135.513 193.583 134.763 194 133L192 132V129L190 128V126.25C188.917 126.513 188.583 125.763 189 124L187 123V121.25C185.917 121.513 185.583 120.763 186 119L184 118V116L182 115V113L180 112V110L178 109V107L176 106V104H175V103L173 102V99.9998H172V98.9998L170 97.9998V95.9998H169V94.9998H168V93.9998H167V92.9998H166V91.9998L164 90.9998V88.9998C163 89.3331 162.667 88.9998 163 87.9998H161V86.9998H160V85.9998H159V84.9998H158V83.9998H157L156 81.9998H154L153 79.9998H151V78.9998C149.267 79.5564 148.6 79.2231 149 77.9998H145V76.9998C146 77.3331 146.333 76.9998 146 75.9998H148L148.25 74.9998H152V73.9998Z" fill="#77E7A6" stroke="#77E7A6"/>
<path opacity="0.996078" d="M143 77C144 76.6667 144.333 77 144 78C143 78.3333 142.667 78 143 77Z" fill="#77E7A6" stroke="#77E7A6"/>
<path opacity="0.996078" d="M136 80H137L138 82H136V86H135C135.25 87.05 134.917 87.4667 134 87.25V119H135C134.583 120.763 134.917 121.513 136 121.25V130.75L138 132.25V138.75L139 139V142.75L140 143.25V148H141C140.75 149.05 141.083 149.467 142 149.25V154.75L143 155C142.583 156.763 142.917 157.513 144 157.25V161.75L145 162C144.583 163.763 144.917 164.513 146 164.25V168.75C146.917 168.533 147.25 168.95 147 170H148V173.75C149.083 173.487 149.417 174.237 149 176H150V180H151C150.443 181.733 150.777 182.4 152 182V186L154 187V191H155C154.75 192.05 155.083 192.467 156 192.25V197L158 198V201H159V203H160V205H161C160.443 206.733 160.777 207.4 162 207V211L164 212V215L166 216V219L168 220V224H170V228L172 229V232L174 233V236L176 237V240L178 241V244L180 245V247L182 248V251L184 252V255L186 256V258L188 259V262H189V263L191 264V265.75C192.083 265.487 192.417 266.237 192 268L194 269V272L196 273V275L198 276V279L200 280V282L202 283V285L204 286V288H205V289.75C206.083 289.487 206.417 290.237 206 292L208 293V295L210 296V298L212 299V301L214 302V304L216 305V307L218 308V310L220 311V313L222 314V316L224 317V320H226V322H227V323H228V324L230 325V328H232V330L234 331V333L236 334V336L238 337V339L240 340V342H241V343H242V344L244 345V347L246 348V350L248 351V353C249 352.667 249.333 353 249 354H251V355H249C249.333 356 249 356.333 248 356C248.333 355 248 354.667 247 355V356H244C244.4 354.777 243.733 354.443 242 355V354H241L240 352H238V351H237L236 349H234V348H233V347H232V346H231L230 344H228V343H227V342H226L225 340H223V339H222L221 337H219C219.333 336 219 335.667 218 336V334H216V333H215V332H214V331H213V330H212L211 328H209V327H208V326H207V325H206V324H205V323H204V322H203L202 320H200V319H199V318H198V317H197V316H196V315H195V314H194V313H193V312H192V311H191V310H190V309H189V308H188V307H187V306H186V305H185V304H184V303H183V302H182V301H181V300H180V299H179V298H178V297H177L176 295H175V294H174V292H173V291H172V290H171V289H170V288H169V287H168V286H167V285L165 284V282H164V281H163V280H162V279H161V278L159 277V275H158V274H157V273L155 272V270H154V269L152 268V266H151V265L149 264V262H148V261L146 260V258L144 257V255L142 254V252L140 251V249L138 248V245L136 244V242L134 241V238L132 237V235H131C131.557 233.267 131.223 232.6 130 233V230H129V228H128V226.25C126.917 226.513 126.583 225.763 127 224H126V220.25L125 220V217H124C124.557 215.267 124.223 214.6 123 215V212H122V210H121C121.557 208.267 121.223 207.6 120 208V205L119 204.75V200H118V198H117C117.417 196.237 117.083 195.487 116 195.75V191.25L115 190.75V186H114C114.25 184.95 113.917 184.533 113 184.75V180.25L112 179.75C112.467 176.817 112.133 175.483 111 175.75V170.25L110 169.75V161.25L109 160.75V134L110 133.75V126.25L111 126V122.25L112 121.75V117.25L113 116.75V113H114C113.443 111.267 113.777 110.6 115 111V108H116V105H117V103H118V101H119V99H120V97.25C121.083 97.5133 121.417 96.7633 121 95H122V94L124 93V91L126 90V88H127V87H128L129 85C128 85.3333 127.667 85 128 84H130V83H132V82H134V81C135.733 81.5567 136.4 81.2233 136 80ZM133 200C133.667 201.667 133.333 202.333 132 202C131.667 203 132 203.333 133 203V205C134 204.667 134.333 205 134 206H136C135.667 207 136 207.333 137 207V202.5C136 202.5 135.667 201.667 136 200H133Z" fill="#77E7A6" stroke="#77E7A6"/>
<path opacity="0.996078" d="M126 85C127 84.6667 127.333 85 127 86L125 87L126 85Z" fill="#77E7A6" stroke="#77E7A6"/>
<path opacity="0.996078" d="M123 87C124 86.6667 124.333 87 124 88C123 88.3333 122.667 88 123 87Z" fill="#77E7A6" stroke="#77E7A6"/>
<path opacity="0.996078" d="M120 89C121 88.6667 121.333 89 121 90C120 90.3333 119.667 90 120 89Z" fill="#77E7A6" stroke="#77E7A6"/>
<path opacity="0.996078" d="M115 94C116 93.6667 116.333 94 116 95C115 95.3333 114.667 95 115 94Z" fill="#77E7A6" stroke="#77E7A6"/>
<path opacity="0.996078" d="M110 99C111 98.6667 111.333 99 111 100C110 100.333 109.667 100 110 99Z" fill="#77E7A6" stroke="#77E7A6"/>
<path opacity="0.996078" d="M96 240C97 239.667 97.3333 240 97 241C96 241.333 95.6667 241 96 240Z" fill="#77E7A6" stroke="#77E7A6"/>
<path opacity="0.996078" d="M273 348C274 347.667 274.333 348 274 349C273 349.333 272.667 349 273 348Z" fill="#77E7A6" stroke="#77E7A6"/>
<path opacity="0.996078" d="M274 350C275 349.667 275.333 350 275 351C274 351.333 273.667 351 274 350Z" fill="#77E7A6" stroke="#77E7A6"/>
<path opacity="0.996078" d="M268 358C269 357.667 269.333 358 269 359C268 359.333 267.667 359 268 358Z" fill="#77E7A6" stroke="#77E7A6"/>
<path opacity="0.996078" d="M270 359H271V362L272 362.25V365.75L273 366.25V369.75L274 370V373H273V370L272 369.75V366.25L271 365.75V362.25L270 362V359Z" fill="#77E7A6" stroke="#77E7A6"/>
<path opacity="0.996078" d="M263 360C264 359.667 264.333 360 264 361C263 361.333 262.667 361 263 360Z" fill="#77E7A6" stroke="#77E7A6"/>
<path opacity="0.996078" d="M258 362C259 361.667 259.333 362 259 363C258 363.333 257.667 363 258 362Z" fill="#77E7A6" stroke="#77E7A6"/>
<path opacity="0.996078" d="M253 364C254 363.667 254.333 364 254 365C253 365.333 252.667 365 253 364Z" fill="#77E7A6" stroke="#77E7A6"/>
<path opacity="0.996078" d="M237 365C238 364.667 238.333 365 238 366C237 366.333 236.667 366 237 365Z" fill="#77E7A6" stroke="#77E7A6"/>
<path opacity="0.996078" d="M251 365C252 364.667 252.333 365 252 366C251 366.333 250.667 366 251 365Z" fill="#77E7A6" stroke="#77E7A6"/>
<path opacity="0.996078" d="M248 366C249 365.667 249.333 366 249 367C248 367.333 247.667 367 248 366Z" fill="#77E7A6" stroke="#77E7A6"/>
<g opacity="0.996078">
<path d="M246 367H247V369H248V371H249V372.75C250.083 372.487 250.417 373.237 250 375L252 376V378H253V379.75C254.083 379.487 254.417 380.237 254 382H253V380.25C251.917 380.513 251.583 379.763 252 378L250 377V375H249V373H248V371H247V369.25C245.917 369.513 245.583 368.763 246 367Z" fill="#77E7A6"/>
<path d="M248 371V369H247V367H246C245.583 368.763 245.917 369.513 247 369.25V371H248ZM248 371H249V372.75C250.083 372.487 250.417 373.237 250 375M248 371V373H249V375H250M250 375L252 376V378M250 375V377L252 378M252 378H253V379.75C254.083 379.487 254.417 380.237 254 382H253V380.25C251.917 380.513 251.583 379.763 252 378Z" stroke="#77E7A6"/>
</g>
<path opacity="0.996078" d="M239 369C240 368.667 240.333 369 240 370C239 370.333 238.667 370 239 369Z" fill="#77E7A6" stroke="#77E7A6"/>
<path opacity="0.996078" d="M241 369C242 368.667 242.333 369 242 370C241 370.333 240.667 370 241 369Z" fill="#77E7A6" stroke="#77E7A6"/>
<path opacity="0.996078" d="M280 374C281 373.667 281.333 374 281 375C280 375.333 279.667 375 280 374Z" fill="#77E7A6" stroke="#77E7A6"/>
<path opacity="0.996078" d="M272 375C273 374.667 273.333 375 273 376C272 376.333 271.667 376 272 375Z" fill="#77E7A6" stroke="#77E7A6"/>
<path opacity="0.996078" d="M267 377C268 376.667 268.333 377 268 378C267 378.333 266.667 378 267 377Z" fill="#77E7A6" stroke="#77E7A6"/>
<path opacity="0.996078" d="M262 379C263 378.667 263.333 379 263 380C262 380.333 261.667 380 262 379Z" fill="#77E7A6" stroke="#77E7A6"/>
<path opacity="0.996078" d="M251 389C252 388.667 252.333 389 252 390C251 390.333 250.667 390 251 389Z" fill="#77E7A6" stroke="#77E7A6"/>
<path opacity="0.996078" d="M284 390C285 389.667 285.333 390 285 391C284 391.333 283.667 391 284 390Z" fill="#77E7A6" stroke="#77E7A6"/>
<path opacity="0.996078" d="M285 394C286 393.667 286.333 394 286 395C285 395.333 284.667 395 285 394Z" fill="#77E7A6" stroke="#77E7A6"/>
<path opacity="0.996078" d="M255 396C256 395.667 256.333 396 256 397C255 397.333 254.667 397 255 396Z" fill="#77E7A6" stroke="#77E7A6"/>
<path opacity="0.996078" d="M286 398C287 397.667 287.333 398 287 399C286 399.333 285.667 399 286 398Z" fill="#77E7A6" stroke="#77E7A6"/>
<path opacity="0.996078" d="M258 401C259 400.667 259.333 401 259 402C258 402.333 257.667 402 258 401Z" fill="#77E7A6" stroke="#77E7A6"/>
<path opacity="0.996078" d="M287 402C288.223 401.6 288.557 402.267 288 404C286.777 404.4 286.443 403.734 287 402Z" fill="#77E7A6" stroke="#77E7A6"/>
<path opacity="0.996078" d="M285 405C286 404.667 286.333 405 286 406C285 406.333 284.667 406 285 405Z" fill="#77E7A6" stroke="#77E7A6"/>
<path opacity="0.996078" d="M261 406C262 405.667 262.333 406 262 407C261 407.333 260.667 407 261 406Z" fill="#77E7A6" stroke="#77E7A6"/>
<path opacity="0.996078" d="M268 412C269 411.667 269.333 412 269 413C268 413.333 267.667 413 268 412Z" fill="#77E7A6" stroke="#77E7A6"/>
</g>
<defs>
<clipPath id="clip0_10930_1020">
<rect width="514" height="486" fill="white"/>
</clipPath>
</defs>
</svg>
