<svg width="536" height="506" viewBox="0 0 536 506" fill="none" xmlns="http://www.w3.org/2000/svg">
<g clip-path="url(#clip0_10929_7842)">
<path opacity="0.52549" d="M372 302H373.5V303C373.333 303 372.917 303 372.25 303L371.5 303.75V304.25L370.5 305.25C370.583 305.833 370.417 306.167 370 306.25V307.25L369 308.25V310.25V310.5H368V310.25V308.25V308H369V307.75V305.75L370 304.75V304H371V303H372V302Z" fill="#A78129" stroke="#A78129"/>
<path opacity="0.52549" d="M375.5 302H377.5V303H375.5V302Z" fill="#A78129" stroke="#A78129"/>
<g opacity="0.52549">
<path d="M378.5 303H379.5V304H381.5V305H383V306H384V307H385V308H386V309H387V310H388V311H389V312H390V313.5H391.5V314.5H392.5V315.5H393.5V316.5H394.5V317.5H395.5V318.5H396.5V319.5H397.5V320.5H398.5V321.5H399.5V322.5H400.5V324H401.25L401.75 324.5H402.5V326H404V327H405.5V328H407V329H408V330H410V331H410.25H412.75H413V332H413.25H423.25L424.75 331H430.75L431.75 330H437.75L439.25 329H444.75H445V328H445.25H457.75H458V329H460V330H461V331.5H462V331.75V335.25V335.5H461V335.75V338.25V338.5H460V338.75V341.25V341.5H459V341.75V343.75V344H458V346H457V348H456V348.25V349.75L455 351.25C455 351.917 455 352.333 455 352.5H454C454 352.667 454 353.083 454 353.75L453 354.75V355.75L452 356.75C452 357.667 452 358.25 452 358.5H450.5V357H451.5V355H452.5V353H453.5V351H454.5V349H455.5V348.75V347.25L456.5 346.25V345.25L457.5 344.25V342.75L458.5 341.75V340.75L459.5 339.25V337.75L460.5 336.25V334.75C460.917 334.667 461.083 334.333 461 333.75C460.5 333.583 460.333 333.083 460.5 332.25L461 331.75L460.75 331.5H460.25L458.25 329.5H456.25L455.75 329H446.25L445.75 329.5H443.25L442.75 330C441.667 329.75 441 329.917 440.75 330.5H436.75L436.25 331H433.25L432.75 331.5H428.75L427.25 332.5H421.25L420.75 333C419.917 332.833 419.417 333 419.25 333.5H415.25L413.75 332.5H411.25L410.75 332H410.25L409.75 331.5H409.25C409.167 331.083 408.833 330.917 408.25 331L407.25 330H406.75L404.25 328H403.5V327H402.5V326H401.5V325H400.5V324H399.75L394 318.25V317.5H393V316.5H392V315.5H391V314.5H390V313.5H389V312.5H388V311.5H387V310.5H386V309.5H385V308.5H384.25L383.25 307.5H382.5V306.5H381.5V305.5H380.75L380.25 305H379.5V304H378.5V303Z" fill="#A78129"/>
<path d="M379.5 304V303H378.5V304H379.5ZM379.5 304H381.5V305H383V306H384V307H385V308H386V309H387V310H388V311H389V312H390V313.5M379.5 304V305H380.25L380.75 305.5H381.5V306.5H382.5V307.5H383.25L384.25 308.5H385V309.5H386V310.5H387V311.5H388V312.5H389V313.5H390M390 313.5H391.5V314.5H392.5V315.5H393.5V316.5H394.5V317.5H395.5V318.5H396.5V319.5H397.5V320.5H398.5V321.5H399.5V322.5H400.5V324M390 313.5V314.5H391V315.5H392V316.5H393V317.5H394V318.25L399.75 324H400.5M400.5 324H401.25L401.75 324.5H402.5V326M400.5 324V325H401.5V326H402.5M402.5 326H404V327H405.5V328H407V329H408V330H410V331H410.25H412.75H413V332H413.25H423.25L424.75 331H430.75L431.75 330H437.75L439.25 329H444.75H445V328H445.25H457.75H458V329H460V330H461V331.5H462V331.75V335.25V335.5H461V335.75V338.25V338.5H460V338.75V341.25V341.5H459V341.75V343.75V344H458V346H457V348H456V348.25V349.75L455 351.25C455 351.917 455 352.333 455 352.5H454C454 352.667 454 353.083 454 353.75L453 354.75V355.75L452 356.75C452 357.667 452 358.25 452 358.5H450.5V357H451.5V355H452.5V353H453.5V351H454.5V349H455.5V348.75V347.25L456.5 346.25V345.25L457.5 344.25V342.75L458.5 341.75V340.75L459.5 339.25V337.75L460.5 336.25V334.75C460.917 334.667 461.083 334.333 461 333.75C460.5 333.583 460.333 333.083 460.5 332.25L461 331.75L460.75 331.5H460.25L458.25 329.5H456.25L455.75 329H446.25L445.75 329.5H443.25L442.75 330C441.667 329.75 441 329.917 440.75 330.5H436.75L436.25 331H433.25L432.75 331.5H428.75L427.25 332.5H421.25L420.75 333C419.917 332.833 419.417 333 419.25 333.5H415.25L413.75 332.5H411.25L410.75 332H410.25L409.75 331.5H409.25C409.167 331.083 408.833 330.917 408.25 331L407.25 330H406.75L404.25 328H403.5V327H402.5V326Z" stroke="#A78129"/>
</g>
<path opacity="0.52549" d="M367.75 311L368 311.25V314.25V314.5H367V314.25V311.75L367.75 311Z" fill="#A78129" stroke="#A78129"/>
<path opacity="0.52549" d="M366 316.5H367V316.75V320.25V320.5H366V320.25V316.75V316.5Z" fill="#A78129" stroke="#A78129"/>
<path opacity="0.52549" d="M365 322.5H366V322.75V326.75V327H365V326.75V322.75V322.5Z" fill="#A78129" stroke="#A78129"/>
<path opacity="0.52549" d="M364.25 330C364.877 329.834 365.127 329.917 365 330.25V333.25V333.5H364V333.75V338.25V338.5H363V338.75V341.25L362 342.75V344.75V345H361C361 345.25 361 345.834 361 346.75L360 347.75C360 348.417 360 348.834 360 349H359V349.75L358.5 350.25V351H357.5V350H358.5V348H359.5V346H360.5V345.75V343.75V343.5H361.5V343.25V340.75L362.5 339.25V335.75L363.5 334.75V330.75L364.25 330Z" fill="#A78129" stroke="#A78129"/>
<g opacity="0.52549">
<path d="M354.5 352H356V353H354.5V354H353.5V353H354.5V352Z" fill="#A78129"/>
<path d="M354.5 353H356V352H354.5V353ZM354.5 353V354H353.5V353H354.5Z" stroke="#A78129"/>
</g>
<path opacity="0.52549" d="M351.5 354H352.5V354.75L351.75 355.5C351.083 355.5 350.667 355.5 350.5 355.5V356.5H348.5V357.5H346.5V358.5C346.333 358.5 345.917 358.5 345.25 358.5L344.25 359.5H342.75L341.75 360.5C340.833 360.5 340.25 360.5 340 360.5V361.5H338V362.5H336.5V361.5H337.25L337.75 361C338.417 361 338.833 361 339 361V360.25L339.25 360C339.583 360.667 339.917 360.667 340.25 360H340.75L342.25 359H343V358C343.25 358 343.833 358 344.75 358L345.75 357H346.75L347.75 356C348.667 356 349.25 356 349.5 356V355H351.5V354Z" fill="#A78129" stroke="#A78129"/>
<g opacity="0.52549">
<path d="M403.75 356H408.25L408.75 356.5H409.25C409.333 356.917 409.667 357.083 410.25 357L411 357.75V358.5H412V360.5H413V360.75V364.75L412 365.75C412 366.417 412 366.833 412 367H411.25L409.25 369H408.25L407.25 370C406.917 369.333 406.583 369.333 406.25 370H405.25L403.75 369C403.083 369.167 402.667 369.083 402.5 368.75L402.75 368.5H408.25L409.25 367.5C409.917 367.5 410.333 367.5 410.5 367.5V366.75L411.5 365.75V363.75C411.917 363.667 412.083 363.333 412 362.75L411.5 362.25V359.75V359.5H410.5V358.5H409.5V357.5H408.75L407.75 356.5H404.75H404.5V357.5H402.5V358.5H401.5V359.5H400.5V361.5H399.5C399.5 361.333 399.5 360.917 399.5 360.25L400.5 359.25V358.5H401.5V357H402.25L403.75 356Z" fill="#A78129"/>
<path d="M401.5 358.5H402.5V357.5H404.5V356.5H404.75H407.75L408.75 357.5H409.5V358.5H410.5V359.5H411.5V359.75V362.25L412 362.75C412.083 363.333 411.917 363.667 411.5 363.75V365.75L410.5 366.75V367.5C410.333 367.5 409.917 367.5 409.25 367.5L408.25 368.5H402.75L402.5 368.75C402.667 369.083 403.083 369.167 403.75 369L405.25 370H406.25C406.583 369.333 406.917 369.333 407.25 370L408.25 369H409.25L411.25 367H412C412 366.833 412 366.417 412 365.75L413 364.75V360.75V360.5H412V358.5H411V357.75L410.25 357C409.667 357.083 409.333 356.917 409.25 356.5H408.75L408.25 356H403.75L402.25 357H401.5V358.5ZM401.5 358.5V359.5H400.5V361.5H399.5C399.5 361.333 399.5 360.917 399.5 360.25L400.5 359.25V358.5H401.5Z" stroke="#A78129"/>
</g>
<g opacity="0.52549">
<path d="M449.5 359H450.5V360.5H449.5V362.5H448.5V362.75V364.75V365H447.5V365.25V367.25V367.5H446.5V367.75V369.75V370H445.5V370.25V372.75V373H444.5V373.25V379.75V380H445.5V380.25V383.25V383.5H446.5V385.5H447.5V385.75V388.25V388.5H448.5V390.5H449.5V392.5H450.5V394H449.5V392.5H448.5C448.5 392.333 448.5 391.917 448.5 391.25L448 390.75C448.083 390.167 447.917 389.833 447.5 389.75V388.75L447 388.25V387.75L446.5 387.25V386.75L446 386.25V385.75L445 384.25V382.75L444 381.75V378.25L443.5 377.75V375.25L444 374.75V371.75L445 370.25V368.75L445.5 368.25V367.75L446 367.25V366.75L446.5 366.25V365.75L447 365.25V364.75L447.5 364.25V363.75L448 363.25V362.75L448.5 362.25V361.75L449.5 360.25C449.5 359.583 449.5 359.167 449.5 359Z" fill="#A78129"/>
<path d="M449.5 392.5V390.5H448.5V388.5H447.5V388.25V385.75V385.5H446.5V383.5H445.5V383.25V380.25V380H444.5V379.75V373.25V373H445.5V372.75V370.25V370H446.5V369.75V367.75V367.5H447.5V367.25V365.25V365H448.5V364.75V362.75V362.5H449.5V360.5H450.5V359H449.5C449.5 359.167 449.5 359.583 449.5 360.25L448.5 361.75V362.25L448 362.75V363.25L447.5 363.75V364.25L447 364.75V365.25L446.5 365.75V366.25L446 366.75V367.25L445.5 367.75V368.25L445 368.75V370.25L444 371.75V374.75L443.5 375.25V377.75L444 378.25V381.75L445 382.75V384.25L446 385.75V386.25L446.5 386.75V387.25L447 387.75V388.25L447.5 388.75V389.75C447.917 389.833 448.083 390.167 448 390.75L448.5 391.25C448.5 391.917 448.5 392.333 448.5 392.5H449.5ZM449.5 392.5H450.5V394H449.5V392.5Z" stroke="#A78129"/>
</g>
<path opacity="0.52549" d="M334.5 362.5H336V363.5H334.5V362.5Z" fill="#A78129" stroke="#A78129"/>
<g opacity="0.52549">
<path d="M332.5 363.5H334V364.5C333.833 364.5 333.417 364.5 332.75 364.5L331.75 365.5C331.083 365.5 330.667 365.5 330.5 365.5V366.5H329.75L329.25 367H328.75L327.25 368H326.5V369H325.75L324.25 370H323.5V371H322.5V372H321.5V373H320.5V373.75L319.5 375.25V376.75C320 376.917 320.167 377.417 320 378.25L322.75 381H323.25L324.75 382.5H325.5V383.5H327.5V384.5H328.25L329.75 385.5C330.417 385.5 330.833 385.5 331 385.5V386.5H329.5V385.5H327.5V384.5C327.333 384.5 326.917 384.5 326.25 384.5L325.25 383.5C324.583 383.5 324.167 383.5 324 383.5V382.5H323.25L322.25 381.5C321.583 381.5 321.167 381.5 321 381.5V380.5H320V379H319V378.75V373.75V373.5H320V372H321V370.5H321.75L323.25 369.5H324V368.5H325V367.5C325.25 367.5 325.833 367.5 326.75 367.5L327.75 366.5H328.5V365.5H330.5V364.5H332.5V363.5Z" fill="#A78129"/>
<path d="M330.5 365.5C330.667 365.5 331.083 365.5 331.75 365.5L332.75 364.5C333.417 364.5 333.833 364.5 334 364.5V363.5H332.5V364.5H330.5V365.5ZM330.5 365.5V366.5H329.75L329.25 367H328.75L327.25 368H326.5V369H325.75L324.25 370H323.5V371H322.5V372H321.5V373H320.5V373.75L319.5 375.25V376.75C320 376.917 320.167 377.417 320 378.25L322.75 381H323.25L324.75 382.5H325.5V383.5H327.5V384.5M330.5 365.5H328.5V366.5H327.75L326.75 367.5C325.833 367.5 325.25 367.5 325 367.5V368.5H324V369.5H323.25L321.75 370.5H321V372H320V373.5H319V373.75V378.75V379H320V380.5H321V381.5C321.167 381.5 321.583 381.5 322.25 381.5L323.25 382.5H324V383.5C324.167 383.5 324.583 383.5 325.25 383.5L326.25 384.5C326.917 384.5 327.333 384.5 327.5 384.5M327.5 384.5H328.25L329.75 385.5C330.417 385.5 330.833 385.5 331 385.5V386.5H329.5V385.5H327.5V384.5Z" stroke="#A78129"/>
</g>
<path opacity="0.52549" d="M399.5 363.5H400.5V365.5H399.5V363.5Z" fill="#A78129" stroke="#A78129"/>
<path opacity="0.52549" d="M400.5 366.5H401.5V367.5H402.25C402.583 367.667 402.583 367.833 402.25 368C401.667 368.083 401.333 367.917 401.25 367.5H400.5V366.5Z" fill="#A78129" stroke="#A78129"/>
<path opacity="0.52549" d="M376.75 369.5H379.25L379.5 369.75L379.25 370H376.75C376.417 369.833 376.417 369.667 376.75 369.5Z" fill="#A78129" stroke="#A78129"/>
<path opacity="0.52549" d="M374.75 370H375.5V371H373.5V372H372.5V374H371.5V373.25C371.917 373.167 372.083 372.833 372 372.25L373.75 370.5C374.333 370.583 374.667 370.417 374.75 370Z" fill="#A78129" stroke="#A78129"/>
<g opacity="0.52549">
<path d="M380.5 370H381.5V371H382.5V372H383.5V372.75L384.5 374.25V377.75C384 377.917 383.833 378.417 384 379.25L382.5 380.75V381.5H381.5V382.5H381.25H378.75C378.5 383.083 377.833 383.25 376.75 383C376.5 382.417 375.833 382.25 374.75 382.5L373.25 381H372.5V380.25L371.5 379.25C371.5 378.583 371.5 378.167 371.5 378H372.5V380H373.5V381H374.25L375.75 382H380.25H380.5V381H381.5V380H382.5V379H383.5V378.75V373.25V373H382.5V372H381.5V371H380.5V370Z" fill="#A78129"/>
<path d="M381.5 371V370H380.5V371H381.5ZM381.5 371H382.5V372M381.5 371V372H382.5M382.5 372H383.5V372.75L384.5 374.25V377.75C384 377.917 383.833 378.417 384 379.25L382.5 380.75V381.5H381.5V382.5H381.25H378.75C378.5 383.083 377.833 383.25 376.75 383C376.5 382.417 375.833 382.25 374.75 382.5L373.25 381H372.5V380.25L371.5 379.25C371.5 378.583 371.5 378.167 371.5 378H372.5V380H373.5V381H374.25L375.75 382H380.25H380.5V381H381.5V380H382.5V379H383.5V378.75V373.25V373H382.5V372Z" stroke="#A78129"/>
</g>
<path opacity="0.52549" d="M412.25 380H413C413 380.167 413 380.583 413 381.25C412.833 381.583 412.667 381.583 412.5 381.25C412.583 380.833 412.5 380.583 412.25 380.5L412 380.75V385.25C412.167 385.583 412.333 385.583 412.5 385.25V383.75L412.75 383.5L413 383.75V387.25V387.5H412V389.5H411C411 389.667 411 390.083 411 390.75L410 391.75V392.5H409.25L406.75 395C406.083 395 405.667 395 405.5 395V396H403.5V397H403.25H399.75L398.75 398H396.75L395.75 397H392.25H392V396H390V395H389.25L388 393.75L388.25 393.5H389V394.5C389.25 394.5 389.833 394.5 390.75 394.5C391.083 394.333 391.083 394.167 390.75 394C390.333 394.083 390.083 394 390 393.75C390.083 393.5 390.333 393.417 390.75 393.5C390.833 393.917 391.167 394.083 391.75 394L392.5 394.75L392.25 395C391.583 394.833 391.167 394.917 391 395.25L391.25 395.5H392.75C393 394.917 393.667 394.75 394.75 395L395.25 395.5C395.667 395.417 395.917 395.5 396 395.75L395.75 396H393.75L393.5 396.25L393.75 396.5H397.25C397.333 396.917 397.667 397.083 398.25 397L398.75 396.5H401.25L401.5 396.25L401.25 396H399.25L399 395.75C399.083 395.5 399.333 395.417 399.75 395.5L400.25 395H402.25L402.75 394.5H403.25L403.75 394H404.25C404.333 393.583 404.667 393.417 405.25 393.5L407.25 391.5H408V390.75L409.5 389.25C409.417 388.667 409.583 388.333 410 388.25V387.5H411V388.25C411.167 388.583 411.333 388.583 411.5 388.25C411.417 387.667 411.583 387.333 412 387.25V386.5H411V386.25V380.75V380.5H411.75L412.25 380ZM410.5 388.5L410 389V390.5C410.333 390.833 410.5 390.833 410.5 390.5V389V388.5ZM406 393V394H405.5C405.167 394.333 405.167 394.5 405.5 394.5C405.833 394.5 406.167 394.5 406.5 394.5V393.5H407.5V393C406.5 393 406 393 406 393ZM403 395C402.667 395.333 402.667 395.5 403 395.5H404.5V395H403Z" fill="#A78129" stroke="#A78129"/>
<path opacity="0.52549" d="M331.5 386.5H332.5V387.5H331.5V386.5Z" fill="#A78129" stroke="#A78129"/>
<path opacity="0.52549" d="M333.5 387.5H335V388.5H336.5V389.5C336.75 389.5 337.333 389.5 338.25 389.5L339.25 390.5H339.75L340.25 391H340.75C340.833 391.417 341.167 391.583 341.75 391.5L342.75 392.5H343.75L344.75 393.5H345.75L346.75 394.5H347.25C347.333 394.917 347.667 395.083 348.25 395L349.25 396C349.917 396 350.333 396 350.5 396V397H349V396H347V395H345V394H343V393H341V392C340.833 392 340.417 392 339.75 392L338.75 391H337.75L336.75 390C336.083 390 335.667 390 335.5 390V389H333.5V387.5Z" fill="#A78129" stroke="#A78129"/>
<path opacity="0.52549" d="M387 391.5H389V392.5H389.75C390.083 392.667 390.083 392.833 389.75 393C389.083 393 388.667 393 388.5 393V392.25C388.333 391.917 388.167 391.917 388 392.25V393H387V391.5Z" fill="#A78129" stroke="#A78129"/>
<path opacity="0.52549" d="M450.5 394.5H452C452 394.75 452 395.333 452 396.25C452.417 396.333 452.583 396.667 452.5 397.25L453.5 398.25V398.75L454 399.25V399.75L454.5 400.25V400.75L455 401.25V401.75L456 403.25V404.25L457 405.25V406.25L458 407.25C458 408.167 458 408.75 458 409H459V409.25V411.25V411.5H460V411.75V414.25V414.5H461V414.75V417.75L460.75 418L460 417.25V415.75C459.417 415.5 459.25 414.833 459.5 413.75L458.5 412.75V411.75L458 411.25C458.083 410.667 457.917 410.333 457.5 410.25V409.25L456.5 407.75C456.5 407.083 456.5 406.667 456.5 406.5H455.5C455.5 406.25 455.5 405.667 455.5 404.75L454.5 403.75V402.75L453.5 401.75C453.5 400.833 453.5 400.25 453.5 400H452.5V398H451.5V396H450.5V394.5Z" fill="#A78129" stroke="#A78129"/>
<g opacity="0.52549">
<path d="M351 397H352.5V398H353.5V399H352.5V398H351V397Z" fill="#A78129"/>
<path d="M352.5 398V397H351V398H352.5ZM352.5 398H353.5V399H352.5V398Z" stroke="#A78129"/>
</g>
<g opacity="0.52549">
<path d="M354.5 399H355.5V400H356.25L357.25 401H358V402H359V402.75L360 403.75V404.75L361 405.75V407.25L362 408.25V411.25V411.5H363V411.75V415.25L364 416.25V421.75V422H365V422.25V425.25V425.5C364.293 425.667 363.793 425.417 363.5 424.75V419.75L362.5 418.75V414.25L361.5 413.25V409.75V409.5H360.5V409.25V406.75V406.5H359.5V404.5H358.5C358.5 404.333 358.5 403.917 358.5 403.25L356.75 401.5H356.25L355.5 400.75V400H354.5V399Z" fill="#A78129"/>
<path d="M355.5 400V399H354.5V400H355.5ZM355.5 400H356.25L357.25 401H358V402H359V402.75L360 403.75V404.75L361 405.75V407.25L362 408.25V411.25V411.5H363V411.75V415.25L364 416.25V421.75V422H365V422.25V425.25V425.5C364.293 425.667 363.793 425.417 363.5 424.75V419.75L362.5 418.75V414.25L361.5 413.25V409.75V409.5H360.5V409.25V406.75V406.5H359.5V404.5H358.5C358.5 404.333 358.5 403.917 358.5 403.25L356.75 401.5H356.25L355.5 400.75V400Z" stroke="#A78129"/>
</g>
<path opacity="0.52549" d="M460.5 418.5H462V418.75V420.75V421H461V423H460V424H458V423H459.5V422H460.5V421.75V418.75V418.5Z" fill="#A78129" stroke="#A78129"/>
<g opacity="0.52549">
<path d="M412.25 420H423.25L423.75 420.5C424.833 420.25 425.5 420.417 425.75 421H430.25L430.75 421.5C431.167 421.417 431.417 421.5 431.5 421.75L431.25 422H426.75L425.25 421H411.25H411V422H409V423H407.5V424H406C406 424.167 406 424.583 406 425.25L405.75 425.5L405.25 425L405 425.25V425.75L404.25 426.5C403.667 426.417 403.333 426.583 403.25 427H402.5V428.5H401.75C401.667 428.917 401.333 429.083 400.75 429L399.25 430.5H398.5V431.5H397.5V432.5H396.5V433.5H395.5V434.5H394.5V435.25C394.333 435.583 394.167 435.583 394 435.25V434.75L400.75 428H401.5V427H402.5V426H403.5V425H404.5V424H406V423H407.5V422C407.667 422 408.083 422 408.75 422L409.75 421H410.75L412.25 420Z" fill="#A78129"/>
<path d="M407.5 423H409V422H411V421H411.25H425.25L426.75 422H431.25L431.5 421.75C431.417 421.5 431.167 421.417 430.75 421.5L430.25 421H425.75C425.5 420.417 424.833 420.25 423.75 420.5L423.25 420H412.25L410.75 421H409.75L408.75 422C408.083 422 407.667 422 407.5 422V423ZM407.5 423V424H406M407.5 423H406V424M406 424C406 424.167 406 424.583 406 425.25L405.75 425.5L405.25 425L405 425.25V425.75L404.25 426.5C403.667 426.417 403.333 426.583 403.25 427H402.5M406 424H404.5V425H403.5V426H402.5V427M402.5 427V428.5H401.75C401.667 428.917 401.333 429.083 400.75 429L399.25 430.5H398.5V431.5H397.5V432.5H396.5V433.5H395.5V434.5H394.5V435.25C394.333 435.583 394.167 435.583 394 435.25V434.75L400.75 428H401.5V427H402.5Z" stroke="#A78129"/>
</g>
<path opacity="0.52549" d="M433.5 422H433.75H436.75H437V423H436.75H433.75H433.5V422Z" fill="#A78129" stroke="#A78129"/>
<path opacity="0.52549" d="M439 423H439.25H443.75H444V424H443.75H439.25H439V423Z" fill="#A78129" stroke="#A78129"/>
<path opacity="0.52549" d="M446.5 424H446.75H457.25C457.583 423.873 457.667 424.123 457.5 424.75L456.75 425.5H447.75L447.25 425H446.5V424Z" fill="#A78129" stroke="#A78129"/>
<path opacity="0.52549" d="M365 428.5H366V428.75V433.25V433.5H365V433.25V428.75V428.5Z" fill="#A78129" stroke="#A78129"/>
<path opacity="0.52549" d="M366 434.5H367V434.75V438.75V439H366V438.75V434.75V434.5Z" fill="#A78129" stroke="#A78129"/>
<g opacity="0.52549">
<path d="M393.25 435.5C393.583 435.667 393.667 436.083 393.5 436.75L392.75 437.5H392V438.5H391.25C391.167 438.917 390.833 439.083 390.25 439C389.917 438.833 389.917 438.667 390.25 438.5H391V437.5H392V436.5H393V435.75L393.25 435.5Z" fill="#A78129"/>
<path d="M392 437.5H392.75L393.5 436.75C393.667 436.083 393.583 435.667 393.25 435.5L393 435.75V436.5H392V437.5ZM392 437.5V438.5H391.25C391.167 438.917 390.833 439.083 390.25 439C389.917 438.833 389.917 438.667 390.25 438.5H391V437.5H392Z" stroke="#A78129"/>
</g>
<g opacity="0.52549">
<path d="M389.25 439.5C389.667 439.417 389.917 439.5 390 439.75L389.75 440H389V441H388V442H387V443H386V444H385V445H384V446H383V447H381.5V448H380.5V447H381.5V446H382.5V445H383.25L384.25 444H384.75L386 442.75C385.75 442 386 441.75 386.75 442L389.25 439.5Z" fill="#A78129"/>
<path d="M381.5 447H383V446H384V445H385V444H386V443H387V442H388V441H389V440H389.75L390 439.75C389.917 439.5 389.667 439.417 389.25 439.5L386.75 442C386 441.75 385.75 442 386 442.75L384.75 444H384.25L383.25 445H382.5V446H381.5V447ZM381.5 447V448H380.5V447H381.5Z" stroke="#A78129"/>
</g>
<path opacity="0.52549" d="M367 440.5H368V440.75V443.25L369 444.75V445.75L369.5 446.25V446.75L370.5 448.25V449H371.5V450H371.75H377.25H377.5V449H378.5V448H380V448.75L379.25 449.5H378.75L378.25 450H377.75L377.25 450.5H376.75L375.25 451.5H372.25H372V450.5H371V449.5H370V448H369V446H368V445.75V443.75V443.5H367V443.25V440.75V440.5Z" fill="#A78129" stroke="#A78129"/>
<path opacity="0.992157" d="M373.5 302H375.5V303H375.75H378.25H378.5V304H379.5V305H380.25L380.75 305.5H381.5V306.5H382.5V307.5H383.25L384.25 308.5H385V309.5H386V310.5H387V311.5H388V312.5H389V313.5H390V314.5H391V315.5H392V316.5H393V317.5H394V318.25L399.75 324H400.5V325H401.5V326H402.5V327H403.5V328H404.25L405.25 329H405.75L408.25 331H408.75L409.25 331.5H409.75L411.25 332.5H413.75L415.25 333.5H419.25L419.75 333C420.583 333.167 421.083 333 421.25 332.5H427.25L428.75 331.5H432.75L433.25 331H436.25L436.75 330.5H440.75L441.25 330C442.333 330.25 443 330.083 443.25 329.5H445.75L446.25 329H455.75L456.25 329.5H458.25L460.25 331.5C460.667 331.417 460.917 331.5 461 331.75C460.5 331.917 460.333 332.417 460.5 333.25C460.917 333.333 461.083 333.667 461 334.25L460.5 334.75V336.25L459.5 337.75V339.25L458.5 340.75V341.75L457.5 342.75V344.25L456.5 345.25V346.25L455.5 347.25C455.5 348.167 455.5 348.75 455.5 349H454.5V351H453.5V353H452.5V355H451.5V357H450.5V359H449.5C449.5 359.167 449.5 359.583 449.5 360.25L449 360.75V361.25L448.5 361.75V362.25L448 362.75V363.25L447.5 363.75V364.25L447 364.75V365.25L446.5 365.75V366.25L446 366.75V367.25L445 368.75V370.25L444 371.75V374.75L443.5 375.25V377.75L444 378.25V381.75L445 382.75V384.25L445.5 384.75V385.25L446 385.75V386.25L446.5 386.75V387.25L447.5 388.75V389.75L448.5 391.25C448.5 391.917 448.5 392.333 448.5 392.5H449.5V394H450.5V396H451.5V398H452.5V400H453.5V400.25V401.75L454.5 402.75V403.75L455.5 404.75C455.5 405.667 455.5 406.25 455.5 406.5H456.5C456.5 406.667 456.5 407.083 456.5 407.75L457.5 409.25V410.25L458.5 411.75V412.75L459.5 413.75V415.25C460.083 415.5 460.25 416.167 460 417.25L461 418.25L460.5 418.75V421.75V422H459.5V423H458V424H457.75H444.25H444V423H443.75H437.25H437V422H436.75H431.75L430.25 421H425.75L425.25 420.5C424.167 420.75 423.5 420.583 423.25 420H412.25L410.75 421H409.75L408.75 422C408.083 422 407.667 422 407.5 422V423H406V424H404.5V425H403.5V426H402.5V427H401.5V428H400.75L394 434.75V435.5H393V436.5H392V437.5H391V438.5H390V439.5H389.25L386.75 442H386V442.75L384.75 444H384.25L383.25 445H382.5V446H381.5V447H380.5V448H378.5V449H377.5V450H377.25H371.75H371.5V449H370.5V448.25L370 447.75V447.25L369 445.75V444.75L368 443.25V440.75V440.5H367V440.25V434.75V434.5H366V434.25V428.75V428.5H365V428.25V422.25V422H364V421.75V416.25L363 415.25V411.75V411.5H362V411.25V408.25L361 407.25V405.75L360 404.75V403.75L359 402.75V402H358V401H357.25L356.25 400H355.5V399H353.5V398H352.5V397H350.5V396C350.333 396 349.917 396 349.25 396L348.25 395H347.75C347.667 394.583 347.333 394.417 346.75 394.5L345.75 393.5H344.75L343.75 392.5H342.75L341.75 391.5H341.25L340.75 391H340.25C340.167 390.583 339.833 390.417 339.25 390.5L338.25 389.5C337.333 389.5 336.75 389.5 336.5 389.5V388.5H335V387.5H334.75H332.75H332.5V386.5H331V385.5C330.833 385.5 330.417 385.5 329.75 385.5L328.25 384.5H327.5V383.5H325.5V382.5H324.75L323.25 381H322.75L320 378.25C320.167 377.417 320 376.917 319.5 376.75V375.25L320.5 373.75V373H321.5V372H322.5V371H323.5V370H324.25L325.75 369H326.5V368H327.25L327.75 367.5H328.25L329.75 366.5H330.5V365.5C330.667 365.5 331.083 365.5 331.75 365.5L332.75 364.5C333.417 364.5 333.833 364.5 334 364.5V363.5H336V362.5H338V361.5H340V360.5H340.25H341.75L342.75 359.5H344.25L345.25 358.5C345.917 358.5 346.333 358.5 346.5 358.5V357.5H348.5V356.5H350.5V355.5C350.667 355.5 351.083 355.5 351.75 355.5C352.417 355.21 352.667 354.71 352.5 354H354.5V353H356V352H357V351H358.5V350.25L359 349.75V349H360C360 348.833 360 348.417 360 347.75L361 346.75C361 345.833 361 345.25 361 345H362V344.75V342.75L363 341.25V338.75V338.5H364V338.25V333.75V333.5H365V333.25V327.25V327H366V326.75V320.75V320.5H367V320.25V314.75V314.5H368V314.25V310.75V310.5H369V310.25V308.25L370 307.25V306.25C370.417 306.167 370.583 305.833 370.5 305.25L371.5 304.25V303.75L372.25 303C372.917 303 373.333 303 373.5 303V302ZM404 356L402.5 357H401.5V358.5H400.5V359.5L399.5 360.5V365.5H400.5V367.5H401.5L402 368H402.5V369C402.833 369 403.333 369 404 369L405.5 370H406.5C406.833 369.333 407.167 369.333 407.5 370L408.5 369H409.5L411.5 367H412C412 367 412 366.667 412 366L413 365V361V360.5H412V358.5H411V358L410.5 357C409.833 357 409.5 356.833 409.5 356.5H409L408.5 356H404ZM377 369.5L376.5 370H375C374.667 370.333 374.333 370.5 374 370.5L372 372.5C372 372.833 371.833 373.167 371.5 373.5V379.5L372.5 380.5V381H373.5L375 382.5C376 382.167 376.667 382.333 377 383C378 383.333 378.667 383.167 379 382.5H381.5V381.5H382.5V381L384 379.5C384 378.5 384.167 378 384.5 378V374.5L383.5 373V372H382.5V371H381.5V370C381.167 370 380.667 370 380 370L379.5 369.5H377ZM412.5 380L412 380.5C411.333 380.167 411 380.333 411 381V387.5H410V388.5C409.667 388.5 409.5 388.833 409.5 389.5L408 391V391.5H407.5L405.5 393.5C404.833 393.5 404.5 393.667 404.5 394H404L403.5 394.5H403L402.5 395H400.5L399 396H396.5L395 395H393L392 394C391.333 394 391 393.833 391 393.5H390V392.5H389V391.5H387V393H388V394L389.5 395H390V396H392V397H392.5H396L397 398H399L400 397H403.5V396H405.5V395C405.833 395 406.333 395 407 395L409.5 392.5H410V392L411 391C411 390 411 389.5 411 389.5H412V387.5H413V384L412.5 383.5C412.167 382.167 412.333 381.5 413 381.5C413 380.5 413 380 413 380H412.5Z" fill="#F8DB2D" stroke="#F8DB2D"/>
</g>
<defs>
<clipPath id="clip0_10929_7842">
<rect width="536" height="506" fill="white"/>
</clipPath>
</defs>
</svg>
